<svg xmlns="http://www.w3.org/2000/svg" viewBox="0 0 350.54 90.73">
  <path d="M17.62 54v17.48h25.8l-3 4.92a98.45 98.45 0 0 0-7.14 14.33H0V0h33.31a98.46 98.46 0 0 0 7.14 14.33l3 4.92H17.62v17.46h50.64v-13l-1-1c-4.26-4.07-7.59-9.28-10.5-14.36q-1-1.8-2-3.64L52.4 0h33.49v90.73H52.4L54.79 86q.94-1.84 2-3.64C59.67 77.3 63 72.08 67.28 68l1-1V54z" fill-rule="evenodd"/>
  <path d="M110.84 37.52a18.77 18.77 0 0 1 13.68-5.29q15.73 0 16 15.13v27.09h-11V47.71q0-4.29-2.2-6.07t-6.48-1.78q-6.64 0-9.91 5v29.59h-11V15.61h11zM171.44 75.21q-10.5 0-17-5.57t-6.55-14.84v-1.15a21.65 21.65 0 0 1 2.84-11.09 19.67 19.67 0 0 1 8-7.6 24.1 24.1 0 0 1 11.46-2.72q10 0 15.52 5.4t5.48 15.29v3.75H159a11.59 11.59 0 0 0 4.07 8.12 13.51 13.51 0 0 0 9 3 16.05 16.05 0 0 0 12.36-5.17l6 4.79a19.28 19.28 0 0 1-7.89 5.77 28.61 28.61 0 0 1-11.1 2.02zm-1.32-35.51a10.17 10.17 0 0 0-7.34 2.68 12.84 12.84 0 0 0-3.57 7.47h21v-.69q-.36-4.67-3-7.07a10.18 10.18 0 0 0-7.09-2.39zM242.81 54.14q0 9.62-5.18 15.34t-13.91 5.73q-8.09 0-13-4.48v19.66h-11V33h10.18l.45 4.21q4.86-5 13.23-5 9 0 14.11 5.65t5.11 15.69zm-11-.8q0-6.21-2.93-9.85t-8.39-3.64q-6.77 0-9.73 4.71V63q3 4.83 9.82 4.83a10.15 10.15 0 0 0 8.25-3.58q2.98-3.63 2.98-10.91zM266 22.92V33h8.68v6.9H266V63a4.54 4.54 0 0 0 1.11 3.43q1.11 1.06 4 1.05a20.09 20.09 0 0 0 3.86-.38v7.2a32 32 0 0 1-7.27.88q-12.73 0-12.73-11.84V39.89h-8.09V33h8.09V22.92zM283.13 22.19a4.59 4.59 0 0 1 1.61-3.59 6.74 6.74 0 0 1 4.61-1.43 6.83 6.83 0 0 1 4.65 1.44 4.57 4.57 0 0 1 1.64 3.59 4.47 4.47 0 0 1-1.64 3.53 6.89 6.89 0 0 1-4.64 1.41 6.8 6.8 0 0 1-4.61-1.41 4.49 4.49 0 0 1-1.62-3.54zm11.73 52.25h-11V33h11zM304.81 53.34a21.29 21.29 0 0 1 2.86-11 19.13 19.13 0 0 1 8-7.51 26 26 0 0 1 11.91-2.62q10 0 16.16 5.4A19.61 19.61 0 0 1 350.5 52v2.18a21.46 21.46 0 0 1-2.8 11 18.9 18.9 0 0 1-8 7.47 26.21 26.21 0 0 1-12 2.64q-10.41 0-16.66-5.84t-6.23-15.65zm11 .8q0 6.4 3.14 10a10.93 10.93 0 0 0 8.73 3.62 10.79 10.79 0 0 0 8.71-3.68q3.11-3.68 3.11-10.76 0-6.28-3.21-10a12.07 12.07 0 0 0-17.3-.06q-3.13 3.68-3.13 10.88z"/>
</svg>
