<svg xmlns="http://www.w3.org/2000/svg" viewBox="0 0 400 400" fill="#25a9e0">
  <path d="M130.67 185.38l60.73-75.55H288l-38.72 45.47c.52-.43 1-.87 1.57-1.29q18.5-14.51 48.43-14.51 32.19 0 51.74 14.59a48.69 48.69 0 0 1 14.7 17l-18.61-81.48L195.3 16.5l-72.76 35v144.64zM6 253.88l35.97 45.1V96.3L6 253.88m139.25 18.28l-22.71 22.72v73.63H97.43l13.63 17.1h168.49l13.63-17.1h-91.5l-56.43-96.35"/>
  <path d="M319.71 192.43q0-19.55-20.61-19.55a20.43 20.43 0 0 0-13.39 4.44 13.74 13.74 0 0 0-5.41 11.05q0 6.77 6.62 11t21.13 6.92a182.61 182.61 0 0 1 25.49 6.47q36.7 12.63 36.7 45.27a41.51 41.51 0 0 1-4.78 19.86l19.13-24-14.06-61.6v.15zm30.76 101.82q-19.78 14-51.21 14-20.91 0-37.3-7.52a66.24 66.24 0 0 1-19.33-13.14l51 80.39 62.19-78a58.22 58.22 0 0 1-5.35 4.27zM274.59 253q.3 11.28 7.52 16.47t18.5 5.19q10.38 0 15.57-4.21a13.47 13.47 0 0 0 5.19-11q0-6.47-6.77-10.38T288.88 241q-19-4.21-31.28-11.05t-18.8-16.62a39.69 39.69 0 0 1-6.47-22.41 44.53 44.53 0 0 1 5.72-22.47l-40.68 47.76 32.08 50.58a43.39 43.39 0 0 1-2.23-13.79z"/>
</svg>
